<svg width="20" height="20" viewBox="0 0 20 20" fill="none" xmlns="http://www.w3.org/2000/svg">
<g clip-path="url(#clip0)">
<path d="M0.417521 3.71703C3.16244 6.04168 7.97893 10.1314 9.39455 11.4066C9.58459 11.5787 9.78842 11.6662 10 11.6662C10.2112 11.6662 10.4147 11.5796 10.6043 11.4083C12.0211 10.1318 16.8376 6.04168 19.5826 3.71703C19.7535 3.57258 19.7795 3.31867 19.6412 3.14207C19.3213 2.73398 18.8444 2.5 18.3333 2.5H1.6667C1.15565 2.5 0.678732 2.73398 0.358927 3.14211C0.220568 3.31867 0.246622 3.57258 0.417521 3.71703Z" fill="black"/>
<path d="M19.7583 4.97683C19.6106 4.90808 19.4369 4.93207 19.314 5.03707C17.5163 6.5609 15.1477 8.57426 13.3614 10.1107C13.2674 10.1913 13.2146 10.3097 13.2166 10.4338C13.2186 10.5575 13.276 10.6743 13.3728 10.7516C15.0326 12.0809 17.5338 13.9095 19.34 15.2092C19.4121 15.2612 19.4975 15.2877 19.5834 15.2877C19.6485 15.2877 19.7135 15.2727 19.7734 15.2417C19.9126 15.1705 20 15.0273 20 14.871V5.35484C20 5.1925 19.9056 5.0448 19.7583 4.97683Z" fill="black"/>
<path d="M0.66 15.2093C2.46664 13.9097 4.96828 12.0811 6.62762 10.7517C6.72445 10.6744 6.78184 10.5576 6.78387 10.4339C6.7859 10.3098 6.73301 10.1914 6.63902 10.1108C4.8527 8.57438 2.48371 6.56103 0.686055 5.0372C0.562344 4.9322 0.388203 4.90903 0.241719 4.97696C0.0944141 5.04493 0 5.19263 0 5.35497V14.8712C0 15.0274 0.0875 15.1707 0.226641 15.2419C0.286445 15.2728 0.351562 15.2879 0.41668 15.2879C0.502539 15.2879 0.587969 15.2614 0.66 15.2093Z" fill="black"/>
<path d="M19.4893 16.3427C17.745 15.0947 14.5316 12.768 12.6135 11.2112C12.4573 11.0839 12.231 11.0879 12.0772 11.2206C11.7009 11.5489 11.3859 11.8257 11.1625 12.0266C10.4764 12.6459 9.5243 12.6459 8.83664 12.0258C8.61406 11.8252 8.29914 11.5477 7.92274 11.2205C7.77016 11.0871 7.54352 11.083 7.38684 11.2112C5.4752 12.7627 2.25824 15.0922 0.511017 16.3426C0.413751 16.4126 0.351095 16.5204 0.338907 16.6396C0.32711 16.7589 0.366563 16.8773 0.44836 16.9652C0.763751 17.305 1.20809 17.4999 1.66668 17.4999H18.3334C18.792 17.4999 19.2359 17.305 19.552 16.9652C19.6334 16.8777 19.6733 16.7593 19.6615 16.6401C19.6493 16.5209 19.5866 16.4127 19.4893 16.3427Z" fill="black"/>
</g>
<defs>
<clipPath id="clip0">
<rect width="20" height="20" fill="white"/>
</clipPath>
</defs>
</svg>
