<svg width="15" height="20" viewBox="0 0 15 20" fill="none" xmlns="http://www.w3.org/2000/svg">
<path d="M7.76488 0.00416853C3.50132 -0.132709 0 3.11898 0 7.14965C0 11.724 4.60812 15.0438 7.19096 19.818C7.3221 20.0604 7.6884 20.0608 7.81999 19.8184C10.1565 15.5225 14.15 12.6419 14.8901 8.50332C15.6564 4.2207 12.3226 0.150548 7.76488 0.00416853ZM7.50511 10.8947C5.33398 10.8947 3.57388 9.21789 3.57388 7.14965C3.57388 5.08142 5.33402 3.40466 7.50511 3.40466C9.67623 3.40466 11.4364 5.08142 11.4364 7.14965C11.4364 9.21789 9.67623 10.8947 7.50511 10.8947Z" fill="#1D1C1C"/>
</svg>
