<svg width="20" height="20" viewBox="0 0 20 20" fill="none" xmlns="http://www.w3.org/2000/svg">
<path d="M14.4584 0H5.54109C4.79833 0 4.19037 0.606735 4.19037 1.35096V18.6498C4.19037 19.3925 4.79833 19.9993 5.54109 19.9998H14.4581C15.2009 19.9993 15.8091 19.3928 15.8091 18.6498V1.35096C15.8094 0.606735 15.2011 0 14.4584 0ZM8.5733 0.973712H11.4269C11.5167 0.973712 11.5891 1.04686 11.5891 1.13714C11.5891 1.22717 11.5167 1.30081 11.4262 1.30081H8.5733C8.48327 1.30081 8.40938 1.22717 8.40938 1.13714C8.40938 1.04686 8.48449 0.973712 8.5733 0.973712ZM9.99986 19.327C9.6275 19.327 9.32438 19.0241 9.32438 18.65C9.32438 18.2779 9.62677 17.9736 9.99986 17.9736C10.373 17.9736 10.6763 18.2764 10.6763 18.65C10.6763 19.0238 10.3722 19.327 9.99986 19.327ZM14.8684 17.5011H5.13056V2.14241H14.8696L14.8684 17.5011Z" fill="#1D1C1C"/>
</svg>
