<svg width="20" height="20" viewBox="0 0 20 20" fill="none" xmlns="http://www.w3.org/2000/svg">
<path d="M15.2053 13.2302C14.5519 12.5851 13.7362 12.5851 13.087 13.2302C12.5917 13.7213 12.0964 14.2124 11.6095 14.7118C11.4763 14.8491 11.364 14.8782 11.2017 14.7867C10.8812 14.6119 10.5399 14.4704 10.232 14.2789C8.79613 13.3758 7.59337 12.2147 6.52794 10.9079C5.99939 10.2586 5.52911 9.56361 5.20033 8.78119C5.13374 8.62304 5.14622 8.519 5.27524 8.38998C5.77049 7.91137 6.25326 7.42028 6.7402 6.92918C7.41857 6.24665 7.41857 5.44758 6.73603 4.76088C6.34899 4.36967 5.96194 3.98678 5.57489 3.59557C5.17535 3.19604 4.77998 2.79234 4.37629 2.39697C3.72288 1.76021 2.90717 1.76021 2.25793 2.40113C1.75851 2.89223 1.2799 3.39581 0.772159 3.87858C0.301875 4.32389 0.0646513 4.86909 0.0147096 5.50585C-0.0643649 6.54214 0.189506 7.52016 0.547421 8.47322C1.2799 10.4459 2.39527 12.198 3.74785 13.8045C5.57489 15.977 7.75568 17.6958 10.3069 18.936C11.4555 19.4937 12.6458 19.9224 13.9401 19.9931C14.8308 20.0431 15.6049 19.8183 16.225 19.1233C16.6495 18.6488 17.1281 18.216 17.5776 17.7624C18.2434 17.0882 18.2476 16.2725 17.5859 15.6066C16.7951 14.8117 16.0002 14.0209 15.2053 13.2302Z" fill="#1D1C1C"/>
<path d="M14.4104 9.9137L15.9461 9.65151C15.7048 8.24065 15.0389 6.96298 14.0275 5.94749C12.958 4.87791 11.6054 4.2037 10.1154 3.99561L9.89903 5.53964C11.0518 5.70195 12.1006 6.22217 12.9288 7.05038C13.7112 7.8328 14.2231 8.82331 14.4104 9.9137Z" fill="#1D1C1C"/>
<path d="M16.8118 3.23789C15.0388 1.46496 12.7956 0.34543 10.3194 0L10.1029 1.54403C12.2421 1.84368 14.1815 2.81338 15.7131 4.34077C17.1655 5.79324 18.1186 7.6286 18.464 9.64708L19.9997 9.38488C19.596 7.04595 18.4932 4.92342 16.8118 3.23789Z" fill="#1D1C1C"/>
</svg>
